<?xml version="1.0" encoding="utf-8"?>
<!-- Generator: Adobe Illustrator 23.0.3, SVG Export Plug-In . SVG Version: 6.00 Build 0)  -->
<svg version="1.1" id="Capa_1" xmlns="http://www.w3.org/2000/svg" xmlns:xlink="http://www.w3.org/1999/xlink" x="0px" y="0px"
	 viewBox="0 0 584 866" style="enable-background:new 0 0 584 866;" xml:space="preserve">
<style type="text/css">
	.st0{fill:#515572;}
	.st1{fill:#2F364F;}
	.st2{fill:#9B730E;}
	.st3{fill:#FFA300;}
	.st4{fill:#FFFFFF;}
	.st5{fill:#BABABA;}
	.st6{fill:#494947;}
	.st7{fill:#686868;}
</style>
<g id="Capa_1_copia_2">
</g>
<g id="Capa_1_copia">
	<g>
		<rect x="234.5" y="512.5" class="st0" width="115" height="353"/>
	</g>
	<g>
		<rect x="289" y="613" class="st1" width="44" height="248"/>
		<path class="st0" d="M292,583.5c-77.9,0-151.1-30.3-206.1-85.4C30.8,443.1,0.5,369.9,0.5,292S30.8,140.9,85.9,85.9
			S214.1,0.5,292,0.5s151.1,30.3,206.1,85.4c55.1,55.1,85.4,128.3,85.4,206.1s-30.3,151.1-85.4,206.1
			C443.1,553.2,369.9,583.5,292,583.5z M292,234.5c31.7,0,57.5,25.8,57.5,57.5v0.5h127.2c9.2,0,17.9-4,23.9-11
			c5.9-7,8.5-16.2,7-25.2C490.2,150.4,399.5,73.5,292,73.5S93.8,150.4,76.4,256.3c-1.5,9,1.1,18.2,7,25.2c6,7,14.7,11,23.9,11h127.2
			V292C234.5,260.3,260.3,234.5,292,234.5z"/>
	</g>
	<g>
		<path class="st1" d="M292,20.3C292,20.3,292,20.3,292,20.3l0,53.2c107.5,0,198.2,76.9,215.6,182.8c1.5,9-1.1,18.2-7,25.2
			c-6,7-14.7,11-23.9,11H349.5V292c0-31.7-25.8-57.5-57.5-57.5v330.2c0,0,0,0,0,0c150.3,0,272.2-121.9,272.2-272.2
			S442.4,20.3,292,20.3z"/>
		<path class="st2" d="M292,757.5c-57.6,0-111.7-22.4-152.4-63.1C98.9,653.7,76.5,599.6,76.5,542V359.3c0-18.1,14.7-32.8,32.8-32.8
			h365.5c18.1,0,32.8,14.7,32.8,32.8V542c0,57.6-22.4,111.7-63.1,152.4S349.6,757.5,292,757.5z"/>
		<path class="st3" d="M292,741c-53.4,0-103.6-20.7-141.4-58.3S92.1,595.2,92.1,542V373.3c0-16.7,13.6-30.3,30.4-30.3h339
			c16.8,0,30.4,13.6,30.4,30.3V542c0,53.2-20.8,103.1-58.5,140.7C395.7,720.3,345.4,741,292,741z"/>
	</g>
	<g>
		<path class="st4" d="M137,515.5c-15.2,0-27.5-12.3-27.5-27.5v-87c0-15.2,12.3-27.5,27.5-27.5h310c15.2,0,27.5,12.3,27.5,27.5v87
			c0,15.2-12.3,27.5-27.5,27.5H137z"/>
	</g>
	<g>
		<path class="st5" d="M212.7,712.5c-4.5,0-8.2-3.7-8.2-8.2V569.7c0-4.5,3.7-8.2,8.2-8.2h152.5c4.5,0,8.2,3.7,8.2,8.2v134.5
			c0,4.5-3.7,8.2-8.2,8.2L212.7,712.5L212.7,712.5z"/>
		<path class="st6" d="M365.3,562c4.3,0,7.7,3.5,7.7,7.7v134.5c0,4.3-3.5,7.7-7.7,7.7H212.7c-4.3,0-7.7-3.5-7.7-7.7V569.7
			c0-4.3,3.5-7.7,7.7-7.7H365.3 M365.3,561H212.7c-4.8,0-8.7,3.9-8.7,8.7v134.5c0,4.8,3.9,8.7,8.7,8.7h152.5c4.8,0,8.7-3.9,8.7-8.7
			V569.7C374,564.9,370.1,561,365.3,561L365.3,561z"/>
	</g>
	<g>
		<path class="st7" d="M222.5,702.6c-3.9,0-7.1-3.2-7.1-7.1V578.6c0-3.9,3.2-7.1,7.1-7.1h132.9c3.9,0,7.1,3.2,7.1,7.1v116.8
			c0,3.9-3.2,7.1-7.1,7.1L222.5,702.6L222.5,702.6z"/>
	</g>
	<g>
		<rect x="234.5" y="584.5" width="22.1" height="104"/>
	</g>
</g>
</svg>
