<?xml version="1.0" encoding="utf-8"?>
<!-- Generator: Adobe Illustrator 23.0.3, SVG Export Plug-In . SVG Version: 6.00 Build 0)  -->
<svg version="1.1" id="Capa_1" xmlns="http://www.w3.org/2000/svg" xmlns:xlink="http://www.w3.org/1999/xlink" x="0px" y="0px"
	 viewBox="0 0 408.2 300.1" style="enable-background:new 0 0 408.2 300.1;" xml:space="preserve">
<style type="text/css">
	.st0{fill:#FFC100;}
</style>
<path class="st0" d="M387,111.4L382.3,94c-1.4-5.4-6.3-9.1-11.9-9.1h-30.6L316.6,48c-10.2-16.1-27.9-25.9-46.9-25.9H249h-93.1h-20.7
	c-19,0-36.8,9.8-46.9,25.9L65,84.9H34.5c-5.6,0-10.4,3.7-11.9,9.1L18,111.4c-1.4,5.1,2.5,10.2,7.8,10.2h17.1l-6.8,11.3
	c-7.4,12.3-10.8,26.6-9.7,41l6.8,89.7c0.8,10.5,9.5,18.6,20.1,18.6h25.9c9.6,0,17.4-7.8,17.4-17.4v-18.6h59.4H249h59.4v18.6
	c0,9.6,7.8,17.4,17.4,17.4h25.9c10.5,0,19.3-8.1,20.1-18.6l6.8-89.7c1.1-14.3-2.3-28.7-9.7-41l-6.8-11.3h17.1
	C384.5,121.6,388.3,116.6,387,111.4z M119.4,65.8c2.6-4.3,7.3-6.9,12.4-6.9l142,0.3c5.1,0,9.7,2.7,12.4,7l11.3,18.7H107.7
	L119.4,65.8z M340.1,209.5H65l-2.1-35l60-0.2l-0.4-36l-47.8,0l10.8-16.7h234.3l10.4,16.8l-48,0.1l0.1,36h60.6L340.1,209.5z"/>
</svg>
