<?xml version="1.0" encoding="utf-8"?>
<!-- Generator: Adobe Illustrator 23.0.3, SVG Export Plug-In . SVG Version: 6.00 Build 0)  -->
<svg version="1.1" id="Capa_1" xmlns="http://www.w3.org/2000/svg" xmlns:xlink="http://www.w3.org/1999/xlink" x="0px" y="0px"
	 viewBox="0 0 1052 1127" style="enable-background:new 0 0 1052 1127;" xml:space="preserve">
<style type="text/css">
	.st0{fill:#FFFFFF;}
	.st1{fill:#FFC100;}
</style>
<path class="st0" d="M20,19v1085h76V95h864v774H434.8V607.4c19.4,4.8,42.6,5.8,67.8,5.8c82.3,0,155-24.2,199.6-71.7
	c32.9-33.9,50.4-80.4,50.4-139.5c0-58.1-21.3-105.6-57.2-136.6c-38.7-34.9-99.8-54.2-183.1-54.2c-67.8,0-121.1,5.8-161.8,12.6
	L351,945h685V19H20z M434.8,284.9c14.5-3.9,42.6-6.8,79.4-6.8c93,0,154,41.7,154,127.9c0,90.1-62,139.5-163.7,139.5
	c-28.1,0-51.3-1.9-69.7-6.8V284.9z"/>
<g>
	<path class="st1" d="M938.7,746.3l-90.8-72.9H659.3c-2.3,0-4.5,0.9-6.1,2.5l-65.3,65.3l-133.6,22c-4.2,0.7-7.3,4.3-7.3,8.6v44.8
		c0,4.8,3.9,8.7,8.7,8.7h25.2c0,0,0-0.1,0-0.1c0-26.3,21.3-47.7,47.7-47.7c26.3,0,47.7,21.3,47.7,47.7c0,0,0,0.1,0,0.1h240.9
		c0,0,0-0.1,0-0.1c0-26.8,21.7-48.5,48.5-48.5s48.5,21.7,48.5,48.5c0,0,0,0.1,0,0.1h21.1c3.8,0,6.8-3.1,6.8-6.8v-65.4
		C942,750.5,940.8,748,938.7,746.3z M741.8,749.9H612.5c-4.9,0-7.4-6-3.8-9.4l47.9-47h85.2V749.9z M873.6,749.9H756.1v-56.4h72.1
		l48.6,48.4C879.8,744.8,877.8,749.9,873.6,749.9z"/>
	<circle class="st1" cx="528.6" cy="825.3" r="38.5"/>
	
		<ellipse transform="matrix(0.7071 -0.7071 0.7071 0.7071 -330.0139 853.7845)" class="st1" cx="865.6" cy="825.3" rx="38.5" ry="38.5"/>
</g>
</svg>
