<?xml version="1.0" encoding="utf-8"?>
<!-- Generator: Adobe Illustrator 23.0.3, SVG Export Plug-In . SVG Version: 6.00 Build 0)  -->
<svg version="1.1" id="Capa_1" xmlns="http://www.w3.org/2000/svg" xmlns:xlink="http://www.w3.org/1999/xlink" x="0px" y="0px"
	 viewBox="0 0 1744.5 331.1" style="enable-background:new 0 0 1744.5 331.1;" xml:space="preserve">
<style type="text/css">
	.st0{fill:#DDBD57;}
</style>
<g>
	<polygon class="st0" points="174.2,-0.2 228.1,108.9 348.6,126.4 261.4,211.4 282,331.3 174.2,274.7 66.5,331.3 87.1,211.4 
		-0.1,126.4 120.4,108.9 	"/>
</g>
<g>
	<polygon class="st0" points="523.2,-0.2 577.1,108.9 697.6,126.4 610.4,211.4 631,331.3 523.2,274.7 415.5,331.3 436.1,211.4 
		348.9,126.4 469.4,108.9 	"/>
</g>
<g>
	<polygon class="st0" points="872.2,-0.2 926.1,108.9 1046.6,126.4 959.4,211.4 980,331.3 872.2,274.7 764.5,331.3 785.1,211.4 
		697.9,126.4 818.4,108.9 	"/>
</g>
<g>
	<polygon class="st0" points="1221.2,-0.2 1275.1,108.9 1395.6,126.4 1308.4,211.4 1329,331.3 1221.2,274.7 1113.5,331.3 
		1134.1,211.4 1046.9,126.4 1167.4,108.9 	"/>
</g>
<g>
	<polygon class="st0" points="1570.2,-0.2 1624.1,108.9 1744.6,126.4 1657.4,211.4 1678,331.3 1570.2,274.7 1462.5,331.3 
		1483.1,211.4 1395.9,126.4 1516.4,108.9 	"/>
</g>
</svg>
