<?xml version="1.0" encoding="utf-8"?>
<!-- Generator: Adobe Illustrator 23.0.3, SVG Export Plug-In . SVG Version: 6.00 Build 0)  -->
<svg version="1.1" id="Capa_1" xmlns="http://www.w3.org/2000/svg" xmlns:xlink="http://www.w3.org/1999/xlink" x="0px" y="0px"
	 viewBox="0 0 1222.7 520.6" style="enable-background:new 0 0 1222.7 520.6;" xml:space="preserve">
<style type="text/css">
	.st0{fill:#FFC100;}
</style>
<g>
	<path class="st0" d="M1179,211.8L968.6,42.9H531.9c-5.3,0-10.4,2.1-14.1,5.8L366.5,200L57.1,251c-9.8,1.6-16.9,10.1-16.9,20v103.8
		c0,11.1,9,20.1,20.1,20.1h58.4c0-0.1,0-0.2,0-0.3c0-61,49.4-110.4,110.4-110.4s110.4,49.4,110.4,110.4c0,0.1,0,0.2,0,0.3h558
		c0-0.1,0-0.2,0-0.3c0-62,50.3-112.2,112.2-112.2s112.2,50.3,112.2,112.2c0,0.1,0,0.2,0,0.3h48.9c8.8,0,15.8-7.1,15.8-15.8V227.7
		C1186.6,221.5,1183.8,215.7,1179,211.8z M722.8,220.1H423.6c-11.4,0-17-13.8-8.9-21.8L525.6,89.4h197.3V220.1z M1028.1,220.1h-272
		V89.4h167l112.7,112.1C1042.7,208.4,1037.8,220.1,1028.1,220.1z"/>
	<circle class="st0" cx="229.1" cy="394.7" r="89.2"/>
	
		<ellipse transform="matrix(0.7071 -0.7071 0.7071 0.7071 16.6568 829.5529)" class="st0" cx="1009.7" cy="394.7" rx="89.2" ry="89.2"/>
</g>
</svg>
