<?xml version="1.0" encoding="utf-8"?>
<!-- Generator: Adobe Illustrator 23.0.3, SVG Export Plug-In . SVG Version: 6.00 Build 0)  -->
<svg version="1.1" id="Capa_1" xmlns="http://www.w3.org/2000/svg" xmlns:xlink="http://www.w3.org/1999/xlink" x="0px" y="0px"
	 viewBox="0 0 1052 1127" style="enable-background:new 0 0 1052 1127;" xml:space="preserve">
<style type="text/css">
	.st0{fill:#214168;}
	.st1{fill:#FFAA00;}
</style>
<path class="st0" d="M20,19v1085h76V95h864v774H434.8V607.4c19.4,4.8,42.6,5.8,67.8,5.8c82.3,0,155-24.2,199.6-71.7
	c32.9-33.9,50.4-80.4,50.4-139.5c0-58.1-21.3-105.6-57.2-136.6c-38.7-34.9-99.8-54.2-183.1-54.2c-67.8,0-121.1,5.8-161.8,12.6
	L351,945h685V19H20z M434.8,284.9c14.5-3.9,42.6-6.8,79.4-6.8c93,0,154,41.7,154,127.9c0,90.1-62,139.5-163.7,139.5
	c-28.1,0-51.3-1.9-69.7-6.8V284.9z"/>
<path class="st1" d="M325.2,870.8c-3.3-4.4-5.5-7.3-7-8.6c0-8.4,0-17.6,0.1-27.4c0.2-17.9,0.3-26.9,0.9-38.5
	c0.6-13,4-78.5,1.8-104.5c-0.2-2.3-0.7-7.7-3.1-14.2c-1.2-3.2-3.7-10.1-9.7-16.4c-4.5-4.7-9.1-7.3-14.2-9.7
	c-12-5.9-21.2-10.4-36.3-13.7c-5.3-1.2-10.3-2-15.1-2.6c-0.8-0.2-1.6-0.4-2.4-0.5c-1.8-0.3-7.3-0.8-15.2-0.7
	c-7.9-0.1-13.4,0.4-15.2,0.7c-0.8,0.1-1.6,0.3-2.4,0.5c-4.8,0.6-9.8,1.4-15.1,2.6c-15.1,3.4-24.3,7.9-36.3,13.7
	c-5,2.5-9.7,5-14.2,9.7c-6,6.3-8.6,13.2-9.7,16.4c-2.4,6.5-2.9,11.8-3.1,14.2c-2.3,26,1.2,91.5,1.8,104.5
	c0.5,11.6,0.7,20.6,0.9,38.5c0.1,9.8,0.2,19,0.1,27.4c-1.5,1.3-3.7,4.2-7,8.6c-1.4,1.9-2.5,3.5-2,4.6c0.5,1.1,2.4,1.2,3.8,1.3
	c1.2,0.1,3.2,0.2,5.1-0.3c-0.1,13.6-0.4,23.8-0.5,29.3c-0.7,28.4-1.9,46.2-1.8,79.3c0,5,0.1,19.1,2.7,37.2
	c1.8,12.5,4.3,24.2,9.3,36.8c3.2,8,4.9,12.2,8.9,16.8c4.3,5,11.1,10.3,27.9,15.1c6.6,1.9,22.1,5.7,46.8,5.3
	c24.8,0.4,40.2-3.4,46.8-5.3c16.8-4.7,23.6-10,27.9-15.1c4-4.6,5.7-8.8,8.9-16.8c5-12.6,7.5-24.3,9.3-36.8
	c2.5-18.1,2.6-32.2,2.7-37.2c0.1-33.1-1-50.9-1.8-79.3c-0.1-5.4-0.4-15.7-0.5-29.3c1.9,0.5,3.9,0.4,5.1,0.3c1.3-0.1,3.2-0.2,3.8-1.3
	C327.7,874.3,326.6,872.7,325.2,870.8z M199.1,798.8l0.8,1c8.7-1.3,17.2-1.9,25.6-1.8c8.4-0.1,16.9,0.5,25.6,1.8l0.8-1
	c1.6-2.1,4.4-2.9,6.9-2.2l22.4,6.3c16.9,4.7,26.8,22.2,22.1,39.1l-13,47.3c-1.2,4.5-5.4,7.6-10,7.5c-17-7.8-34.8-11.6-53.6-11.8
	c-0.4,0-0.9,0-1.3,0c-0.4,0-0.9,0-1.3,0c-18.8,0.2-36.6,4-53.6,11.8c-4.7,0.1-8.8-3-10-7.5l-13-47.3c-4.6-16.9,5.3-34.4,22.1-39.1
	l22.4-6.3C194.7,795.9,197.4,796.7,199.1,798.8z M290,958.8l2.7-48.7c3.4-17.2,7.7-31.7,12.8-43.8l-6.2,85L290,958.8z M297.8,966.6
	l-3.2,15.8c-1.7-1.9-2.8-5.7-3.2-11.7L297.8,966.6z M150.7,951.3l-6.2-85c5.1,12.1,9.4,26.6,12.8,43.8l2.7,48.7L150.7,951.3z
	 M158.6,970.6c-0.3,6-1.4,9.8-3.2,11.7l-3.2-15.8L158.6,970.6z M142.5,666.5c3.4-7.5,9.9-11.9,14.5-9.8c1.2,0.6,2.2,1.6,2.9,2.8
	c0.1-0.4,0.3-0.7,0.5-1.1c2.6-5.7,7.7-9,11.4-7.3s4.5,7.7,1.9,13.4s-7.7,9-11.4,7.3c-0.7-0.3-1.4-0.9-1.9-1.5
	c-0.3,1.2-0.8,2.5-1.3,3.7c-3.4,7.5-9.9,11.9-14.5,9.8C140,681.8,139,674,142.5,666.5z M151.2,1072.6c-5.2-5.5-8.2-13-10.5-23.4
	c7.5,14.9,15.9,20.9,27.4,32.1C162.7,1081.4,156.3,1078.1,151.2,1072.6z M257.8,1049.8c-6,1.5-16.5,2.2-29.1,2.7l-2,0.2
	c-0.5,0-1,0-1.5,0c-0.5,0-1,0-1.5,0l-2-0.2c-12.6-0.4-23.1-1.2-29.1-2.7c-10.5-2-20.1-6.4-28.4-14.2c-4-5.1-7.5-11.9-10.4-20.5
	c1.6-6.7,5.7-13.3,12.6-19.9c8-4.6,18.9-8.1,30.9-11.3c9.9-0.6,19.5-0.9,28.7-0.9c9.2,0,18.3,0.3,27.3,0.9
	c12,3.1,22.9,6.6,30.9,11.3c6.9,6.6,11,13.2,12.6,19.9c-2.9,8.7-6.4,15.4-10.4,20.5C277.9,1043.4,268.3,1047.8,257.8,1049.8z
	 M298.9,1072.6c-5.2,5.5-11.5,8.8-16.8,8.8c11.4-11.2,19.9-17.2,27.4-32.1C307.1,1059.6,304.1,1067.1,298.9,1072.6z M305.5,683.9
	c-4.6,2.1-11.1-2.3-14.5-9.8c-0.6-1.2-1-2.5-1.3-3.7c-0.5,0.6-1.1,1.2-1.9,1.5c-3.7,1.7-8.8-1.6-11.4-7.3s-1.8-11.8,1.9-13.4
	s8.8,1.6,11.4,7.3c0.2,0.4,0.3,0.7,0.5,1.1c0.7-1.3,1.6-2.3,2.9-2.8c4.6-2.1,11.1,2.3,14.5,9.8C311,674,310.1,681.8,305.5,683.9z"/>
</svg>
