<?xml version="1.0" encoding="utf-8"?>
<!-- Generator: Adobe Illustrator 23.0.3, SVG Export Plug-In . SVG Version: 6.00 Build 0)  -->
<svg version="1.1" id="Capa_1" xmlns="http://www.w3.org/2000/svg" xmlns:xlink="http://www.w3.org/1999/xlink" x="0px" y="0px"
	 viewBox="0 0 391 391" style="enable-background:new 0 0 391 391;" xml:space="preserve">
<style type="text/css">
	.st0{fill:#E72D00;}
	.st1{fill:#3C3C3C;}
</style>
<g>
	<path class="st0" d="M184.6,213.4l-0.2-0.1c-6.2-3.9-9.9-10.5-9.9-17.8c0-7.3,3.7-13.9,9.9-17.8l0.2-0.1L195.5,7.8l10.9,169.7
		l0.2,0.1c6.2,3.9,9.9,10.5,9.9,17.8c0,7.3-3.7,13.9-9.9,17.8l-0.2,0.1l-10.9,169.7L184.6,213.4z"/>
	<path class="st1" d="M195.5,15.6l10.4,161.7l0,0.5l0.4,0.3c6.1,3.8,9.7,10.3,9.7,17.4s-3.6,13.6-9.7,17.4l-0.4,0.3l0,0.5
		l-10.4,161.7l-10.4-161.7l0-0.5l-0.4-0.3c-6.1-3.8-9.7-10.3-9.7-17.4s3.6-13.6,9.7-17.4l0.4-0.3l0-0.5L195.5,15.6 M195.5,0
		l-11.4,177.3c-6.1,3.8-10.1,10.5-10.1,18.2s4.1,14.4,10.1,18.2L195.5,391l11.4-177.3c6.1-3.8,10.1-10.5,10.1-18.2
		s-4.1-14.4-10.1-18.2L195.5,0L195.5,0z"/>
</g>
</svg>
