<?xml version="1.0" encoding="utf-8"?>
<!-- Generator: Adobe Illustrator 23.0.3, SVG Export Plug-In . SVG Version: 6.00 Build 0)  -->
<svg version="1.1" id="Capa_1" xmlns="http://www.w3.org/2000/svg" xmlns:xlink="http://www.w3.org/1999/xlink" x="0px" y="0px"
	 viewBox="0 0 512 512" style="enable-background:new 0 0 512 512;" xml:space="preserve">
<style type="text/css">
	.st0{fill:#A300BF;}
</style>
<g>
	<path class="st0" d="M263.4,243.9h-47.5v131.9h30.7l0.5-51.8l16.3,0.2C310,324.2,315.6,243.9,263.4,243.9z M247.1,298.2v-28.5
		c16.3,0,22.4,2.7,22.4,14.3C269.5,294.4,263.3,298.2,247.1,298.2z"/>
	<path class="st0" d="M255.3,174c-129,0-196.6,174.6-0.8,336C460.9,328.1,365.8,174,255.3,174z M320,396.6H192
		c-13.4,0-24.3-10.9-24.3-24.3v-128c0-13.4,10.9-24.3,24.3-24.3h128c13.4,0,24.2,10.9,24.3,24.3v128
		C344.3,385.7,333.4,396.6,320,396.6z"/>
</g>
</svg>
