<?xml version="1.0" encoding="utf-8"?>
<!-- Generator: Adobe Illustrator 23.0.3, SVG Export Plug-In . SVG Version: 6.00 Build 0)  -->
<svg version="1.1" xmlns="http://www.w3.org/2000/svg" xmlns:xlink="http://www.w3.org/1999/xlink" x="0px" y="0px"
	 viewBox="0 0 584 866" style="enable-background:new 0 0 584 866;" xml:space="preserve">
<style type="text/css">
	.st0{fill:url(#SVGID_1_);}
	.st1{fill:url(#SVGID_2_);}
	.st2{fill:#FF0000;}
	.st3{fill:#FFFFFF;}
	.st4{fill:url(#SVGID_3_);}
	.st5{fill:#3C3C3C;}
	.st6{fill:#75642C;}
	.st7{fill:#E5C45C;}
	.st8{fill:#F8EA70;}
</style>
<g id="Capa_1">
</g>
<g id="Capa_1_copia_2">
</g>
<g id="Capa_1_copia">
	<g>
		<linearGradient id="SVGID_1_" gradientUnits="userSpaceOnUse" x1="234.5" y1="689" x2="349.5" y2="689">
			<stop  offset="0" style="stop-color:#FFFFFF"/>
			<stop  offset="1.809550e-02" style="stop-color:#F9F9FA"/>
			<stop  offset="0.1831" style="stop-color:#CBCBCD"/>
			<stop  offset="0.3295" style="stop-color:#AAA9AC"/>
			<stop  offset="0.4502" style="stop-color:#959498"/>
			<stop  offset="0.5305" style="stop-color:#8E8D91"/>
			<stop  offset="0.5317" style="stop-color:#8D8C90"/>
			<stop  offset="0.6116" style="stop-color:#706F72"/>
			<stop  offset="0.695" style="stop-color:#59595A"/>
			<stop  offset="0.7837" style="stop-color:#494949"/>
			<stop  offset="0.8804" style="stop-color:#3F3F3F"/>
			<stop  offset="1" style="stop-color:#3C3C3C"/>
		</linearGradient>
		<rect x="234.5" y="512.5" class="st0" width="115" height="353"/>
		<path d="M349,513v352H235V513H349 M350,512H234v354h116V512L350,512z"/>
	</g>
	<g>
		<radialGradient id="SVGID_2_" cx="292" cy="292" r="291.5" gradientUnits="userSpaceOnUse">
			<stop  offset="0" style="stop-color:#FFFFFF"/>
			<stop  offset="2.938654e-02" style="stop-color:#F9F9FA"/>
			<stop  offset="0.2974" style="stop-color:#CBCBCD"/>
			<stop  offset="0.535" style="stop-color:#AAA9AC"/>
			<stop  offset="0.7312" style="stop-color:#959498"/>
			<stop  offset="0.8614" style="stop-color:#8E8D91"/>
			<stop  offset="0.8888" style="stop-color:#89888C"/>
			<stop  offset="0.9207" style="stop-color:#7C7B7E"/>
			<stop  offset="0.955" style="stop-color:#656466"/>
			<stop  offset="0.9906" style="stop-color:#464546"/>
			<stop  offset="1" style="stop-color:#3C3C3C"/>
		</radialGradient>
		<path class="st1" d="M292,583.5c-77.9,0-151.1-30.3-206.1-85.4C30.8,443.1,0.5,369.9,0.5,292S30.8,140.9,85.9,85.9
			S214.1,0.5,292,0.5c77.9,0,151.1,30.3,206.1,85.4c55.1,55.1,85.4,128.3,85.4,206.1s-30.3,151.1-85.4,206.1
			C443.1,553.2,369.9,583.5,292,583.5z M292,234.5c31.7,0,57.5,25.8,57.5,57.5v0.5h127.2c9.2,0,17.9-4,23.9-11
			c5.9-7,8.5-16.2,7-25.2C490.2,150.4,399.5,73.5,292,73.5c-107.5,0-198.2,76.9-215.6,182.8c-1.5,9,1.1,18.2,7,25.2
			c6,7,14.7,11,23.9,11h127.2V292C234.5,260.3,260.3,234.5,292,234.5z"/>
		<path d="M292,1c39.3,0,77.4,7.7,113.3,22.9c34.7,14.7,65.8,35.6,92.5,62.4c26.7,26.7,47.7,57.8,62.4,92.5
			c15.2,35.9,22.9,74,22.9,113.3s-7.7,77.4-22.9,113.3c-14.7,34.7-35.6,65.8-62.4,92.5c-26.7,26.7-57.8,47.7-92.5,62.4
			c-35.9,15.2-74,22.9-113.3,22.9c-39.3,0-77.4-7.7-113.3-22.9c-34.7-14.7-65.8-35.6-92.5-62.4s-47.7-57.8-62.4-92.5
			C8.7,369.4,1,331.3,1,292s7.7-77.4,22.9-113.3c14.7-34.7,35.6-65.8,62.4-92.5c26.7-26.7,57.8-47.7,92.5-62.4
			C214.6,8.7,252.7,1,292,1 M107.3,293H234h1v-1c0-31.4,25.6-57,57-57s57,25.6,57,57v1h1h126.7c9.4,0,18.2-4.1,24.2-11.2
			c6-7.1,8.6-16.4,7.1-25.6C490.6,150,399.7,73,292,73C184.3,73,93.4,150,75.9,256.2c-1.5,9.2,1.1,18.5,7.1,25.6
			C89.1,288.9,97.9,293,107.3,293 M292,0C130.7,0,0,130.7,0,292s130.7,292,292,292s292-130.7,292-292S453.3,0,292,0L292,0z
			 M107.3,292c-18.9,0-33.4-17-30.4-35.7C93.9,152.9,183.7,74,292,74s198.1,78.9,215.1,182.3c3.1,18.7-11.4,35.7-30.4,35.7H350
			c0-32-26-58-58-58s-58,26-58,58H107.3L107.3,292z"/>
	</g>
	<g>
		<path class="st2" d="M292,757.5c-57.6,0-111.7-22.4-152.4-63.1C98.9,653.7,76.5,599.6,76.5,542V359.3c0-18.1,14.7-32.8,32.8-32.8
			h365.5c18.1,0,32.8,14.7,32.8,32.8V542c0,57.6-22.4,111.7-63.1,152.4S349.6,757.5,292,757.5z"/>
		<path d="M474.7,327c17.8,0,32.3,14.5,32.3,32.3V542c0,29-5.7,57.2-16.9,83.7c-10.8,25.6-26.3,48.6-46.1,68.3
			c-19.7,19.7-42.7,35.2-68.3,46.1C349.2,751.3,321,757,292,757c-29,0-57.2-5.7-83.7-16.9c-25.6-10.8-48.6-26.3-68.3-46.1
			s-35.2-42.7-46.1-68.3C82.7,599.2,77,571,77,542V359.3c0-17.8,14.5-32.3,32.3-32.3H474.7 M474.7,326H109.3
			C90.9,326,76,340.9,76,359.3V542c0,119.3,96.7,216,216,216h0c119.3,0,216-96.7,216-216V359.3C508,340.9,493.1,326,474.7,326
			L474.7,326z"/>
	</g>
	<g>
		<path class="st3" d="M137,515.5c-15.2,0-27.5-12.3-27.5-27.5v-87c0-15.2,12.3-27.5,27.5-27.5h310c15.2,0,27.5,12.3,27.5,27.5v87
			c0,15.2-12.3,27.5-27.5,27.5H137z"/>
		<path d="M447,374c14.9,0,27,12.1,27,27v87c0,14.9-12.1,27-27,27H137c-14.9,0-27-12.1-27-27v-87c0-14.9,12.1-27,27-27H447 M447,373
			H137c-15.5,0-28,12.5-28,28v87c0,15.5,12.5,28,28,28h310c15.5,0,28-12.5,28-28v-87C475,385.5,462.5,373,447,373L447,373z"/>
	</g>
	<g>
		<linearGradient id="SVGID_3_" gradientUnits="userSpaceOnUse" x1="204.5" y1="637" x2="373.5" y2="637">
			<stop  offset="0" style="stop-color:#FFFFFF"/>
			<stop  offset="1.781166e-02" style="stop-color:#F8F8F8"/>
			<stop  offset="0.151" style="stop-color:#C6C6C6"/>
			<stop  offset="0.2873" style="stop-color:#9C9C9C"/>
			<stop  offset="0.4247" style="stop-color:#797979"/>
			<stop  offset="0.5635" style="stop-color:#5E5E5E"/>
			<stop  offset="0.7042" style="stop-color:#4B4B4B"/>
			<stop  offset="0.8481" style="stop-color:#404040"/>
			<stop  offset="1" style="stop-color:#3C3C3C"/>
		</linearGradient>
		<path class="st4" d="M212.7,712.5c-4.5,0-8.2-3.7-8.2-8.2V569.7c0-4.5,3.7-8.2,8.2-8.2h152.5c4.5,0,8.2,3.7,8.2,8.2v134.5
			c0,4.5-3.7,8.2-8.2,8.2H212.7z"/>
		<path class="st5" d="M365.3,562c4.3,0,7.7,3.5,7.7,7.7v134.5c0,4.3-3.5,7.7-7.7,7.7H212.7c-4.3,0-7.7-3.5-7.7-7.7V569.7
			c0-4.3,3.5-7.7,7.7-7.7H365.3 M365.3,561H212.7c-4.8,0-8.7,3.9-8.7,8.7v134.5c0,4.8,3.9,8.7,8.7,8.7h152.5c4.8,0,8.7-3.9,8.7-8.7
			V569.7C374,564.9,370.1,561,365.3,561L365.3,561z"/>
	</g>
	<g>
		<rect x="234.5" y="584.5" width="28" height="104"/>
		<path class="st5" d="M262,585v103h-27V585H262 M263,584h-29v105h29V584L263,584z"/>
	</g>
	<path class="st6" d="M261,603.5c-4.9-8.9-11.4-15.6-19.3-18.1c-4.2-1.3-10.5,0.7-17.8,2.3c-15.3,3.5-24.2,27.4-19.7,53
		s21.6,46.7,37.1,44c3.1-0.5,11.6-2.7,15-4.7c1.8-1.1,3.4-2.3,4.8-3.8V603.5z"/>
	<g>
		<path class="st7" d="M220.3,595.4l-8.2,2.1c-0.6,0.9-1.2,1.8-1.7,2.7l8.5-2.2C219.3,597.1,219.8,596.2,220.3,595.4z"/>
		<path class="st7" d="M218.3,599.2l-8.5,2.2c-0.6,1.2-1.1,2.4-1.6,3.6l8.4-2.2C217.2,601.5,217.7,600.3,218.3,599.2z"/>
		<path class="st7" d="M214.7,608.2l-8.2,2.1c-0.4,1.5-0.7,2.9-0.9,4.1l8-2C213.9,610.9,214.3,609.5,214.7,608.2z"/>
		<path class="st7" d="M222.3,592.1l-6.8,1.7c-0.1,0.1-0.2,0.2-0.3,0.3c0,0-1,0.9-1.9,1.9c-0.1,0.1-0.2,0.2-0.3,0.3l7.9-2
			C221.4,593.5,221.9,592.8,222.3,592.1z"/>
		<path class="st7" d="M226.6,670.3l-7.1,1.8c0.7,0.8,1.3,1.5,1.8,2.1c0.6,0.7,1.2,1.2,1.7,1.8l7-1.8
			C228.7,673,227.5,671.6,226.6,670.3z"/>
		<path class="st7" d="M212,622.4l-7.5,1.9c0,1.4,0,3,0,4.8l7.5-1.9C212,625.3,212,623.7,212,622.4z"/>
		<path class="st7" d="M235,678l-7.2,1.8c1.3,0.8,2.5,1.4,3.8,1.8c0,0,0,0,0,0l7.2-1.8C237.6,679.4,236.3,678.8,235,678z"/>
		<path class="st7" d="M213.3,613.3l-7.9,2c-0.4,1.9-0.5,3.1-0.5,3.1c0,0.1,0,0.2,0,0.4l7.7-2C212.8,615.6,213,614.5,213.3,613.3z"
			/>
		<path class="st7" d="M215.4,647.9l-7.4,1.9c0.2,0.6,0.4,1.3,0.6,1.9c0.4,1.2,0.8,2.3,1.2,3.4l7.4-1.9
			C216.5,651.5,215.9,649.7,215.4,647.9z"/>
		<path class="st7" d="M216.2,603.9l-8.4,2.1c-0.4,1.1-0.7,2.1-1,3.1l8.2-2.1C215.4,606,215.8,604.9,216.2,603.9z"/>
		<path class="st7" d="M226,669.5c-0.7-1-1.3-1.9-1.9-2.8c-0.3-0.5-0.7-1.1-1-1.6l-7.3,1.9c1.1,1.7,2.1,3.1,3.1,4.4L226,669.5z"/>
		<path class="st7" d="M233.9,677.4c-1.1-0.7-2.2-1.5-3.1-2.4l-7,1.8c1,0.9,2,1.7,2.9,2.4L233.9,677.4z"/>
		<path class="st7" d="M240.3,680.5l-7.1,1.8c5.8,1.6,11.3,0.8,11.4-0.1C244.8,681.7,243,681.4,240.3,680.5z"/>
		<path class="st7" d="M223.1,590.9c0.4-0.5,0.7-1,1-1.5c-1.7,0.5-4.1,1.3-6.6,2.9L223.1,590.9z"/>
		<path class="st7" d="M222.6,664.3c-0.9-1.5-1.7-3-2.5-4.5l-7.4,1.9c0.8,1.7,1.7,3.2,2.5,4.5L222.6,664.3z"/>
		<path class="st7" d="M219.7,658.9c-0.8-1.6-1.5-3.2-2.1-4.7l-7.4,1.9c0.7,1.7,1.4,3.3,2.1,4.7L219.7,658.9z"/>
		<path class="st7" d="M212.4,633.3c-0.2-1.8-0.3-3.6-0.4-5.1l-7.5,1.9c0.1,1.6,0.2,3.3,0.4,5.1L212.4,633.3z"/>
		<path class="st7" d="M213.5,640.4c-0.4-2.2-0.7-4.2-1-6.2l-7.4,1.9c0.2,2,0.6,4,1,6.2L213.5,640.4z"/>
		<path class="st7" d="M212.4,618c0,0,0-0.1,0-0.1l-7.7,2c-0.1,1-0.2,2.2-0.2,3.5l7.5-1.9C212.2,619.2,212.4,618,212.4,618z"/>
		<path class="st7" d="M215.1,647c-0.6-2-1-3.9-1.4-5.7l-7.4,1.9c0.4,1.8,0.9,3.7,1.5,5.7L215.1,647z"/>
	</g>
	<path class="st8" d="M261,605.6c-6.3-12.6-15.4-20.1-25.6-18.4c-15.5,2.7-24.5,25.6-20,51.2s20.6,44.2,36,41.5
		c3.8-0.7,7-2.5,9.6-5.3V605.6z"/>
</g>
</svg>
