<?xml version="1.0" encoding="utf-8"?>
<!-- Generator: Adobe Illustrator 23.0.3, SVG Export Plug-In . SVG Version: 6.00 Build 0)  -->
<svg version="1.1" id="Capa_1" xmlns="http://www.w3.org/2000/svg" xmlns:xlink="http://www.w3.org/1999/xlink" x="0px" y="0px"
	 viewBox="0 0 512 512" style="enable-background:new 0 0 512 512;" xml:space="preserve">
<style type="text/css">
	.st0{fill:#8E8E8E;}
</style>
<g>
	<path class="st0" d="M255.3,174c-129,0-196.6,174.6-0.8,336C460.9,328.1,365.8,174,255.3,174z M330.2,362.1
		c0,11.3-9.2,20.4-20.4,20.4H202.2c-11.3,0-20.4-9.2-20.4-20.4V254.5c0-11.3,9.2-20.4,20.4-20.4h107.6c11.3,0,20.3,9.2,20.4,20.4
		V362.1z"/>
	<path class="st0" d="M293.7,287.4c0-20.1-16.3-36.4-36.4-36.4h0c-20.1,0-36.4,16.3-36.4,36.4v9.1h-6.4v66.9h85.6v-66.9h-6.4V287.4z
		 M276.8,296.6h-38.9v-8c0-10.7,8.7-19.5,19.5-19.5h0c10.7,0,19.5,8.7,19.5,19.5V296.6z"/>
</g>
</svg>
