<?xml version="1.0" encoding="utf-8"?>
<!-- Generator: Adobe Illustrator 23.0.3, SVG Export Plug-In . SVG Version: 6.00 Build 0)  -->
<svg version="1.1" id="Capa_1" xmlns="http://www.w3.org/2000/svg" xmlns:xlink="http://www.w3.org/1999/xlink" x="0px" y="0px"
	 viewBox="0 0 512 512" style="enable-background:new 0 0 512 512;" xml:space="preserve">
<style type="text/css">
	.st0{fill:#30C100;}
	.st1{fill:#00ADEF;}
</style>
<path class="st0" d="M256,2C61,2-41.2,266,254.8,510C566.8,235,423,2,256,2z M254,329c-79,0-143-64-143-143S175,43,254,43
	s143,64,143,143S333,329,254,329z"/>
<path class="st1" d="M320,102H192c-13.4,0-24.3,10.9-24.3,24.3v128c0,13.4,10.9,24.3,24.3,24.3h128c13.4,0,24.3-10.9,24.3-24.3v-128
	C344.2,112.9,333.4,102,320,102z M302.5,259.6h-92.9V121h92.7v23.1h-64.2v33h54.8v22.4h-54.8v37.1h64.4V259.6z"/>
</svg>
