<?xml version="1.0" encoding="utf-8"?>
<!-- Generator: Adobe Illustrator 23.0.3, SVG Export Plug-In . SVG Version: 6.00 Build 0)  -->
<svg version="1.1" id="Capa_1" xmlns="http://www.w3.org/2000/svg" xmlns:xlink="http://www.w3.org/1999/xlink" x="0px" y="0px"
	 viewBox="0 0 2174.6 692.5" style="enable-background:new 0 0 2174.6 692.5;" xml:space="preserve">
<style type="text/css">
	.st0{fill:#0000FF;}
	.st1{fill:#FF0000;}
	.st2{fill:#FFFFFF;}
</style>
<rect class="st0" width="344.6" height="344.6"/>
<rect y="344.6" class="st1" width="1043.6" height="347.8"/>
<rect x="344.6" class="st2" width="699" height="344.6"/>
<polygon class="st2" points="84.4,143.8 140.3,184.4 119.6,252 174.9,209.5 226.6,247.1 206.5,185.1 260.2,143.8 193.1,143.8 
	172.3,79.9 152.8,143.8 "/>
<g>
	<path d="M1339,444.5h110.5V509H1339v125.9h-68.6V509h-111.1v-64.5h111.1V326.7h68.6V444.5z"/>
	<path d="M1521.9,467.4l23-213.4h227.4v61.1h-168.6l-11.6,101.2c19.6-11.2,41.7-16.9,66.3-16.9c40.3,0,71.7,12.9,94.1,38.7
		c22.4,25.8,33.6,60.5,33.6,104.1c0,43-12.4,77.3-37.2,102.8c-24.8,25.5-58.8,38.2-102.1,38.2c-38.8,0-70.9-11-96.4-33
		c-25.5-22-39.3-51-41.4-87.1h68.3c2.7,20.5,10.1,36.3,22.1,47.2c12,11,27.7,16.4,47.1,16.4c21.7,0,38.6-7.7,50.7-23.3
		c12.1-15.5,18.2-36.6,18.2-63.4c0-25.8-6.7-46.2-20.1-61.2c-13.4-15-31.8-22.5-55.2-22.5c-12.8,0-23.6,1.7-32.6,5.1
		c-8.9,3.4-18.6,10-29.1,19.9L1521.9,467.4z"/>
	<path d="M2061.2,252v58.4h-8.7c-39.5,0.6-71.1,11.4-94.8,32.6c-23.6,21.1-37.7,51.1-42.2,89.8c22.7-23.8,51.7-35.8,86.9-35.8
		c37.4,0,66.9,13.2,88.5,39.5c21.6,26.4,32.4,60.4,32.4,102.1c0,43-12.6,77.9-37.9,104.5c-25.3,26.7-58.5,40-99.6,40
		c-42.3,0-76.5-15.6-102.8-46.8c-26.3-31.2-39.4-72.1-39.4-122.7v-24.1c0-74.2,18.1-132.4,54.2-174.5c36.2-42.1,88.1-63.1,156-63.1
		H2061.2z M1985.3,454.1c-15.5,0-29.7,4.4-42.6,13.1s-22.3,20.4-28.3,34.9v21.5c0,31.4,6.6,56.4,19.8,74.9
		c13.2,18.5,30.2,27.8,51.2,27.8c20.9,0,37.5-7.9,49.7-23.6c12.2-15.7,18.3-36.3,18.3-61.9s-6.2-46.4-18.6-62.5
		C2022.3,462.1,2005.9,454.1,1985.3,454.1z"/>
</g>
</svg>
