<?xml version="1.0" encoding="utf-8"?>
<!-- Generator: Adobe Illustrator 23.0.3, SVG Export Plug-In . SVG Version: 6.00 Build 0)  -->
<svg version="1.1" id="Capa_1" xmlns="http://www.w3.org/2000/svg" xmlns:xlink="http://www.w3.org/1999/xlink" x="0px" y="0px"
	 viewBox="0 0 405.1 405.1" style="enable-background:new 0 0 405.1 405.1;" xml:space="preserve">
<style type="text/css">
	.st0{fill:#6AC259;}
</style>
<path class="st0" d="M202.5,0C90.7,0,0,90.7,0,202.5S90.7,405,202.5,405S405,314.3,405,202.5S314.3,0,202.5,0z M258,314.9
	c-15.6,14.7-36,22.1-61.3,22.1c-23.6,0-42.7-7.3-57.4-21.8c-14.7-14.6-22-33.7-22-57.4h53.5c0,9.8,2.6,18.1,7.7,24.8
	c5.2,6.7,11.7,10,19.7,10c9.2,0,16.5-3.4,21.8-10.2c5.4-6.8,8-15.9,8-27.2c0-27.1-10.5-40.7-31.6-40.8h-26.3v-43.1h25.9
	c9.8,0,17-3.4,21.6-10.3c4.6-6.9,6.9-16,6.9-27.5c0-11-2.4-19.5-7.1-25.6c-4.7-6.1-11.1-9.2-19-9.2c-7.4,0-13.5,2.9-18.2,8.7
	c-4.7,5.8-7.1,13.1-7.1,21.9h-53.5c0-14.4,3.3-27.2,9.9-38.6c6.6-11.4,15.9-20.3,27.8-26.7c11.9-6.4,25.1-9.6,39.6-9.6
	c25.3,0,45.2,7,59.5,21c14.4,14,21.5,33.1,21.5,57.4c0,12.5-3.2,24-9.7,34.7c-6.5,10.6-15,18.8-25.6,24.5c13,5.5,22.6,13.9,29,24.9
	c6.4,11.1,9.5,24.2,9.5,39.3C281.3,280.6,273.6,300.2,258,314.9z"/>
</svg>
