<?xml version="1.0" encoding="utf-8"?>
<!-- Generator: Adobe Illustrator 23.0.3, SVG Export Plug-In . SVG Version: 6.00 Build 0)  -->
<svg version="1.1" id="Capa_1" xmlns="http://www.w3.org/2000/svg" xmlns:xlink="http://www.w3.org/1999/xlink" x="0px" y="0px"
	 viewBox="0 0 405.1 405.1" style="enable-background:new 0 0 405.1 405.1;" xml:space="preserve">
<style type="text/css">
	.st0{fill:#6AC259;}
</style>
<path class="st0" d="M202.5,0C90.7,0,0,90.7,0,202.5S90.7,405,202.5,405S405,314.3,405,202.5S314.3,0,202.5,0z M284.7,333.2H122.6
	v-37.8l74.5-94.7c9.4-13.1,16.4-24.6,20.9-34.5c4.5-9.9,6.7-19.4,6.7-28.4c0-12.2-2.1-21.8-6.3-28.7c-4.2-6.9-10.3-10.4-18.2-10.4
	c-8.7,0-15.6,4-20.7,12.1c-5.1,8.1-7.7,19.4-7.7,34h-53.7c0-16.9,3.5-32.3,10.5-46.3c7-14,16.8-24.8,29.5-32.6
	c12.7-7.7,27-11.6,43-11.6c24.6,0,43.6,6.8,57.2,20.3c13.5,13.5,20.3,32.8,20.3,57.7c0,15.5-3.8,31.2-11.2,47.1
	c-7.5,15.9-21.1,35.6-40.7,58.9l-35.3,50.5h93.5V333.2z"/>
</svg>
