<?xml version="1.0" encoding="utf-8"?>
<!-- Generator: Adobe Illustrator 23.0.3, SVG Export Plug-In . SVG Version: 6.00 Build 0)  -->
<svg version="1.1" id="Capa_1" xmlns="http://www.w3.org/2000/svg" xmlns:xlink="http://www.w3.org/1999/xlink" x="0px" y="0px"
	 viewBox="0 0 840.1 530.8" style="enable-background:new 0 0 840.1 530.8;" xml:space="preserve">
<style type="text/css">
	.st0{fill:#BAA769;}
	.st1{fill:none;}
	.st2{fill:#FFFFFF;}
	.st3{font-family:'MyriadPro-Regular';}
	.st4{font-size:13px;}
</style>
<image style="display:none;overflow:visible;" width="3543" height="2267" xlink:href="tarjeta-advance-visa.jpg"  transform="matrix(0.24 0 0 0.24 -5.146 -6.1691)">
</image>
<path class="st0" d="M169.9,250.7v-3v0c-4.3-8.1-4.3-18.3,0-26.4v0v-2.7c-4.3-8.1-4.3-18.3,0-26.4v-2.6c-4.3-8.1-4.3-18.3,0-26.4
	h-42.7c4.3,8.1,4.3,18.3,0,26.4v2.6c4.3,8.1,4.3,18.3,0,26.4v2.7v0c4.3,8.1,4.3,18.3,0,26.4v0v3c4.3,8.1,4.3,18.3,0,26.4h42.7
	C165.5,269,165.5,258.8,169.9,250.7z"/>
<g>
	<path class="st0" d="M82.6,192.3v26.4h41.6c4.9-8.1,4.9-18.3,0-26.4H82.6z"/>
	<path class="st0" d="M82.6,174.1v15.5h41.6c4.9-8.1,4.9-18.3,0-26.4H93.5C87.5,163.2,82.6,168.1,82.6,174.1z"/>
	<path class="st0" d="M124.2,221.4H82.6v26.4h41.6v0C129.2,239.7,129.2,229.5,124.2,221.4L124.2,221.4z"/>
	<path class="st0" d="M82.6,250.7v15.5c0,6,4.9,10.9,10.9,10.9h30.7c4.9-8.1,4.9-18.3,0-26.4H82.6z"/>
	<path class="st0" d="M172.8,218.7h41.6v-26.4h-41.6C167.9,200.4,167.9,210.6,172.8,218.7z"/>
	<path class="st0" d="M172.8,163.2c-4.9,8.1-4.9,18.3,0,26.4h41.6v-15.5c0-6-4.9-10.9-10.9-10.9H172.8z"/>
	<path class="st0" d="M172.8,221.4c-4.9,8.1-4.9,18.3,0,26.4v0h41.6v-26.4L172.8,221.4L172.8,221.4z"/>
	<path class="st0" d="M172.8,277.1h30.7c6,0,10.9-4.9,10.9-10.9v-15.5h-41.6C167.9,258.8,167.9,269,172.8,277.1z"/>
</g>
<rect x="321.5" y="393.6" class="st1" width="45.7" height="27.5"/>
<text transform="matrix(0.84 0 0 1 321.4904 402.8173)"><tspan x="0" y="0" class="st2 st3 st4">VÁLIDA </tspan><tspan x="0" y="15" class="st2 st3 st4">HASTA</tspan></text>
</svg>
